<svg xmlns="http://www.w3.org/2000/svg" xmlns:xlink="http://www.w3.org/1999/xlink" width="500" zoomAndPan="magnify" viewBox="0 0 375 374.999991" height="500" preserveAspectRatio="xMidYMid meet" version="1.0"><defs><g/><clipPath id="2b4161d89a"><path d="M 50 58 L 318 58 L 318 325 L 50 325 Z M 50 58 " clip-rule="nonzero"/></clipPath><clipPath id="b5f53ac0c1"><path d="M 188.445312 1.929688 L 334.148438 154.199219 L 140.148438 339.824219 L -5.550781 187.554688 Z M 188.445312 1.929688 " clip-rule="nonzero"/></clipPath><clipPath id="7141b09c04"><path d="M 188.445312 1.929688 L 374.074219 195.925781 L 180.074219 381.550781 L -5.550781 187.554688 Z M 188.445312 1.929688 " clip-rule="nonzero"/></clipPath><clipPath id="340b319813"><path d="M 254.339844 198.816406 L 267.839844 198.816406 L 267.839844 212.316406 L 254.339844 212.316406 Z M 254.339844 198.816406 " clip-rule="nonzero"/></clipPath></defs><g clip-path="url(#2b4161d89a)"><g clip-path="url(#b5f53ac0c1)"><g clip-path="url(#7141b09c04)"><path fill="#ff914d" d="M 245.46875 307.484375 C 234.742188 313.039062 223.203125 316.882812 211.429688 319.222656 C 201.792969 321.074219 192.011719 322.054688 182.21875 322.007812 C 180.914062 322.039062 179.613281 321.921875 178.3125 321.875 C 177.011719 321.804688 175.707031 321.777344 174.40625 321.675781 L 170.515625 321.320312 L 168.566406 321.140625 L 166.632812 320.878906 L 162.757812 320.359375 C 161.46875 320.15625 160.191406 319.902344 158.90625 319.679688 C 156.328125 319.28125 153.800781 318.652344 151.246094 318.105469 C 150.878906 318.027344 150.496094 317.941406 150.09375 317.855469 C 149.699219 317.746094 149.289062 317.632812 148.859375 317.519531 C 148.003906 317.28125 147.082031 317.027344 146.105469 316.757812 C 144.128906 316.261719 141.984375 315.492188 139.613281 314.710938 C 139.027344 314.507812 138.417969 314.324219 137.808594 314.09375 C 137.203125 313.859375 136.589844 313.617188 135.960938 313.371094 C 134.707031 312.878906 133.40625 312.367188 132.0625 311.839844 C 129.453125 310.625 126.609375 309.476562 123.792969 307.945312 C 112.3125 302.265625 99.96875 293.269531 89.496094 282.414062 C 79.113281 271.472656 70.671875 258.746094 65.5 247.027344 C 64.097656 244.144531 63.074219 241.253906 61.976562 238.589844 C 61.507812 237.226562 61.054688 235.90625 60.617188 234.632812 C 60.402344 233.992188 60.1875 233.367188 59.976562 232.753906 C 59.773438 232.136719 59.617188 231.519531 59.441406 230.921875 C 58.761719 228.523438 58.089844 226.34375 57.679688 224.347656 C 57.453125 223.359375 57.242188 222.425781 57.046875 221.5625 C 56.945312 221.128906 56.851562 220.714844 56.761719 220.3125 C 56.691406 219.910156 56.625 219.519531 56.5625 219.152344 C 54.777344 209.519531 53.859375 199.738281 53.972656 189.945312 C 54.199219 179.515625 55.703125 169.144531 58.097656 158.980469 C 60.953125 147.316406 65.304688 135.960938 71.324219 125.488281 C 77.222656 114.941406 84.847656 105.378906 93.535156 96.921875 C 102.367188 88.617188 112.257812 81.417969 123.054688 75.996094 C 133.78125 70.441406 145.316406 66.597656 157.09375 64.253906 C 166.726562 62.40625 176.507812 61.425781 186.300781 61.472656 C 187.605469 61.441406 188.90625 61.554688 190.210938 61.601562 C 191.511719 61.671875 192.816406 61.703125 194.113281 61.800781 L 198.007812 62.160156 L 199.953125 62.335938 L 201.890625 62.601562 L 205.765625 63.121094 C 207.050781 63.324219 208.328125 63.578125 209.613281 63.796875 C 212.191406 64.199219 214.722656 64.828125 217.273438 65.371094 C 217.640625 65.453125 218.023438 65.539062 218.425781 65.625 C 218.820312 65.734375 219.234375 65.84375 219.660156 65.960938 C 220.515625 66.195312 221.4375 66.449219 222.417969 66.722656 C 224.390625 67.21875 226.539062 67.988281 228.90625 68.765625 C 229.496094 68.96875 230.105469 69.15625 230.710938 69.386719 C 231.316406 69.621094 231.933594 69.863281 232.5625 70.109375 C 233.816406 70.601562 235.117188 71.113281 236.457031 71.640625 C 239.070312 72.851562 241.914062 74.003906 244.726562 75.53125 C 256.210938 81.214844 268.550781 90.210938 279.027344 101.066406 C 289.40625 112.007812 297.847656 124.734375 303.019531 136.453125 C 304.421875 139.335938 305.445312 142.222656 306.542969 144.890625 C 307.011719 146.25 307.464844 147.574219 307.902344 148.847656 C 308.121094 149.484375 308.335938 150.113281 308.542969 150.726562 C 308.746094 151.34375 308.902344 151.960938 309.082031 152.558594 C 309.757812 154.957031 310.429688 157.136719 310.839844 159.128906 C 311.066406 160.121094 311.277344 161.050781 311.476562 161.917969 C 311.574219 162.347656 311.667969 162.765625 311.757812 163.167969 C 311.828125 163.570312 311.894531 163.957031 311.960938 164.328125 C 313.746094 173.960938 314.660156 183.742188 314.546875 193.535156 C 314.324219 203.964844 312.816406 214.335938 310.421875 224.5 C 307.566406 236.164062 303.214844 247.519531 297.195312 257.992188 C 291.300781 268.535156 283.671875 278.101562 274.988281 286.558594 C 266.15625 294.863281 256.265625 302.058594 245.46875 307.484375 Z M 277.136719 288.675781 L 277.144531 288.667969 C 286.011719 280.03125 293.808594 270.265625 299.847656 259.492188 C 306.011719 248.796875 310.460938 237.183594 313.347656 225.261719 L 314.601562 219.652344 C 314.601562 219.652344 314.898438 218.097656 315.335938 215.765625 C 315.84375 213.445312 316.191406 210.296875 316.652344 207.167969 C 316.917969 204.015625 317.296875 200.875 317.335938 198.503906 C 317.441406 196.132812 317.507812 194.554688 317.507812 194.554688 C 317.507812 194.554688 317.519531 194.160156 317.523438 193.46875 C 317.523438 192.777344 317.53125 191.789062 317.535156 190.605469 C 317.609375 188.230469 317.417969 185.078125 317.292969 181.917969 C 317.179688 180.34375 317.015625 178.769531 316.890625 177.292969 C 316.820312 176.554688 316.757812 175.84375 316.695312 175.167969 C 316.601562 174.496094 316.511719 173.859375 316.429688 173.269531 C 316.105469 170.921875 315.886719 169.355469 315.886719 169.355469 C 315.886719 169.355469 315.855469 169 315.753906 168.46875 C 315.660156 167.941406 315.539062 167.234375 315.414062 166.527344 C 315.167969 165.113281 314.917969 163.699219 314.917969 163.699219 C 314.855469 163.320312 314.785156 162.925781 314.714844 162.511719 C 314.625 162.101562 314.53125 161.675781 314.429688 161.230469 C 314.230469 160.34375 314.015625 159.390625 313.785156 158.378906 C 313.371094 156.335938 312.6875 154.105469 311.996094 151.648438 C 311.816406 151.039062 311.652344 150.40625 311.449219 149.773438 C 311.234375 149.144531 311.015625 148.503906 310.796875 147.851562 C 310.347656 146.542969 309.886719 145.191406 309.410156 143.792969 C 308.289062 141.066406 307.242188 138.109375 305.808594 135.160156 C 300.523438 123.15625 291.886719 110.121094 281.257812 98.925781 C 270.546875 87.816406 257.902344 78.613281 246.144531 72.804688 C 243.261719 71.242188 240.351562 70.0625 237.675781 68.828125 C 236.300781 68.289062 234.972656 67.765625 233.683594 67.261719 C 233.042969 67.011719 232.410156 66.765625 231.792969 66.523438 C 231.171875 66.292969 230.546875 66.101562 229.941406 65.894531 C 227.519531 65.097656 225.320312 64.316406 223.300781 63.8125 C 222.296875 63.535156 221.355469 63.28125 220.476562 63.039062 C 220.039062 62.921875 219.617188 62.808594 219.210938 62.699219 C 218.800781 62.609375 218.40625 62.523438 218.03125 62.445312 C 218.03125 62.445312 216.632812 62.132812 215.230469 61.824219 C 214.527344 61.671875 213.828125 61.515625 213.304688 61.398438 C 212.78125 61.273438 212.425781 61.230469 212.425781 61.230469 C 212.425781 61.230469 210.871094 60.941406 208.539062 60.511719 C 207.953125 60.40625 207.324219 60.289062 206.65625 60.164062 C 205.984375 60.074219 205.273438 59.976562 204.539062 59.878906 C 203.070312 59.683594 201.507812 59.449219 199.9375 59.269531 C 196.785156 59.007812 193.644531 58.675781 191.269531 58.644531 C 190.085938 58.597656 189.097656 58.558594 188.40625 58.53125 C 187.71875 58.503906 187.320312 58.5 187.320312 58.5 C 187.320312 58.5 185.742188 58.496094 183.371094 58.496094 C 181 58.429688 177.84375 58.671875 174.683594 58.796875 C 171.539062 59.121094 168.378906 59.328125 166.035156 59.730469 C 163.6875 60.070312 162.121094 60.292969 162.121094 60.292969 L 156.464844 61.300781 C 144.421875 63.65625 132.625 67.59375 121.667969 73.277344 C 110.640625 78.835938 100.542969 86.195312 91.519531 94.675781 L 91.511719 94.679688 L 91.449219 94.742188 L 91.382812 94.804688 L 91.378906 94.8125 C 82.511719 103.449219 74.710938 113.214844 68.671875 123.984375 C 62.511719 134.683594 58.058594 146.292969 55.175781 158.21875 L 53.917969 163.828125 C 53.917969 163.828125 53.625 165.382812 53.183594 167.714844 C 52.679688 170.035156 52.332031 173.183594 51.871094 176.3125 C 51.605469 179.464844 51.222656 182.605469 51.183594 184.976562 C 51.082031 187.34375 51.011719 188.925781 51.011719 188.925781 C 51.011719 188.925781 51 189.320312 51 190.011719 C 50.996094 190.703125 50.988281 191.6875 50.984375 192.875 C 50.910156 195.246094 51.105469 198.402344 51.230469 201.5625 C 51.339844 203.136719 51.503906 204.707031 51.632812 206.183594 C 51.699219 206.921875 51.765625 207.636719 51.828125 208.3125 C 51.921875 208.984375 52.007812 209.621094 52.089844 210.207031 C 52.417969 212.558594 52.636719 214.121094 52.636719 214.121094 C 52.636719 214.121094 52.664062 214.480469 52.765625 215.007812 C 52.859375 215.539062 52.984375 216.246094 53.105469 216.953125 C 53.355469 218.367188 53.601562 219.78125 53.601562 219.78125 C 53.667969 220.15625 53.734375 220.554688 53.804688 220.96875 C 53.894531 221.378906 53.992188 221.804688 54.089844 222.25 C 54.289062 223.136719 54.507812 224.085938 54.734375 225.101562 C 55.152344 227.140625 55.835938 229.375 56.523438 231.832031 C 56.703125 232.441406 56.867188 233.074219 57.074219 233.707031 C 57.285156 234.335938 57.503906 234.976562 57.726562 235.628906 C 58.171875 236.933594 58.636719 238.289062 59.113281 239.683594 C 60.230469 242.414062 61.28125 245.371094 62.710938 248.320312 C 68 260.320312 76.636719 273.359375 87.261719 284.554688 C 97.976562 295.660156 110.621094 304.863281 122.378906 310.675781 C 125.261719 312.234375 128.171875 313.414062 130.847656 314.652344 C 132.21875 315.191406 133.550781 315.714844 134.835938 316.214844 C 135.480469 316.46875 136.109375 316.714844 136.730469 316.953125 C 137.351562 317.1875 137.976562 317.378906 138.578125 317.585938 C 141.003906 318.382812 143.203125 319.164062 145.222656 319.667969 C 146.226562 319.941406 147.167969 320.199219 148.042969 320.4375 C 148.480469 320.558594 148.90625 320.671875 149.308594 320.78125 C 149.722656 320.867188 150.113281 320.953125 150.488281 321.035156 C 150.488281 321.035156 151.890625 321.34375 153.292969 321.65625 C 153.992188 321.808594 154.691406 321.964844 155.21875 322.078125 C 155.738281 322.203125 156.097656 322.25 156.097656 322.25 C 156.097656 322.25 157.652344 322.535156 159.984375 322.964844 C 160.566406 323.074219 161.199219 323.191406 161.863281 323.3125 C 162.539062 323.40625 163.246094 323.503906 163.980469 323.601562 C 165.453125 323.792969 167.015625 324.027344 168.585938 324.210938 C 171.734375 324.472656 174.878906 324.804688 177.25 324.835938 C 178.433594 324.882812 179.421875 324.921875 180.113281 324.949219 C 180.804688 324.976562 181.199219 324.980469 181.199219 324.980469 C 181.199219 324.980469 182.78125 324.980469 185.148438 324.984375 C 187.523438 325.050781 190.675781 324.808594 193.835938 324.679688 C 196.984375 324.359375 200.144531 324.152344 202.484375 323.75 C 204.835938 323.410156 206.398438 323.183594 206.398438 323.183594 L 212.058594 322.179688 C 224.097656 319.824219 235.894531 315.886719 246.851562 310.203125 C 257.878906 304.644531 267.980469 297.28125 277 288.804688 L 277.007812 288.800781 L 277.074219 288.738281 L 277.136719 288.675781 " fill-opacity="1" fill-rule="nonzero"/></g></g></g><g fill="#ff914d" fill-opacity="1"><g transform="translate(178.174639, 325.876313)"><g><path d="M 1.578125 0.046875 L 1.96875 -15.109375 L 12.15625 -14.84375 L 12.09375 -12.265625 L 4.859375 -12.453125 L 4.75 -8.546875 L 10.765625 -8.390625 L 10.703125 -6 L 4.6875 -6.15625 L 4.53125 0.125 Z M 1.578125 0.046875 "/></g></g></g><g fill="#ff914d" fill-opacity="1"><g transform="translate(200.26417, 325.751902)"><g><path d="M 7.515625 -3.65625 C 8.210938 -3.757812 8.773438 -3.984375 9.203125 -4.328125 C 9.628906 -4.679688 9.953125 -5.101562 10.171875 -5.59375 C 10.390625 -6.09375 10.519531 -6.640625 10.5625 -7.234375 C 10.601562 -7.835938 10.578125 -8.453125 10.484375 -9.078125 L 9.328125 -16.71875 L 12.21875 -17.15625 L 13.375 -9.515625 C 13.519531 -8.492188 13.535156 -7.507812 13.421875 -6.5625 C 13.304688 -5.625 13.035156 -4.773438 12.609375 -4.015625 C 12.179688 -3.265625 11.582031 -2.628906 10.8125 -2.109375 C 10.039062 -1.585938 9.078125 -1.242188 7.921875 -1.078125 C 6.734375 -0.898438 5.6875 -0.957031 4.78125 -1.25 C 3.882812 -1.539062 3.128906 -1.988281 2.515625 -2.59375 C 1.898438 -3.195312 1.40625 -3.929688 1.03125 -4.796875 C 0.65625 -5.660156 0.394531 -6.578125 0.25 -7.546875 L -0.90625 -15.1875 L 2.015625 -15.625 L 3.171875 -7.984375 C 3.265625 -7.347656 3.410156 -6.75 3.609375 -6.1875 C 3.816406 -5.625 4.097656 -5.140625 4.453125 -4.734375 C 4.804688 -4.328125 5.234375 -4.019531 5.734375 -3.8125 C 6.242188 -3.601562 6.835938 -3.550781 7.515625 -3.65625 Z M 7.515625 -3.65625 "/></g></g></g><g fill="#ff914d" fill-opacity="1"><g transform="translate(225.668099, 320.935783)"><g><path d="M 8.1875 -16.046875 L 3.609375 -14.5 L 7.640625 -2.59375 L 4.875 -1.65625 L 0.84375 -13.5625 L -3.75 -12 L -4.578125 -14.453125 L 7.359375 -18.5 Z M 8.1875 -16.046875 "/></g></g></g><g fill="#ff914d" fill-opacity="1"><g transform="translate(247.268037, 312.813126)"><g><path d="M 5.78125 -6.046875 C 6.394531 -6.390625 6.835938 -6.796875 7.109375 -7.265625 C 7.378906 -7.742188 7.53125 -8.253906 7.5625 -8.796875 C 7.601562 -9.335938 7.535156 -9.894531 7.359375 -10.46875 C 7.179688 -11.039062 6.941406 -11.601562 6.640625 -12.15625 L 2.90625 -18.921875 L 5.46875 -20.34375 L 9.203125 -13.578125 C 9.703125 -12.671875 10.0625 -11.757812 10.28125 -10.84375 C 10.507812 -9.925781 10.550781 -9.035156 10.40625 -8.171875 C 10.269531 -7.316406 9.929688 -6.507812 9.390625 -5.75 C 8.847656 -5 8.066406 -4.34375 7.046875 -3.78125 C 5.992188 -3.195312 4.992188 -2.882812 4.046875 -2.84375 C 3.109375 -2.800781 2.238281 -2.953125 1.4375 -3.296875 C 0.644531 -3.640625 -0.0703125 -4.148438 -0.71875 -4.828125 C -1.363281 -5.515625 -1.925781 -6.289062 -2.40625 -7.15625 L -6.140625 -13.921875 L -3.546875 -15.359375 L 0.1875 -8.59375 C 0.5 -8.03125 0.847656 -7.519531 1.234375 -7.0625 C 1.617188 -6.601562 2.050781 -6.242188 2.53125 -5.984375 C 3.007812 -5.722656 3.519531 -5.582031 4.0625 -5.5625 C 4.601562 -5.550781 5.175781 -5.710938 5.78125 -6.046875 Z M 5.78125 -6.046875 "/></g></g></g><g fill="#ff914d" fill-opacity="1"><g transform="translate(269.430029, 299.433761)"><g><path d="M 1.21875 -1 L -8.390625 -12.71875 L -3.203125 -16.96875 C -2.671875 -17.414062 -2.082031 -17.710938 -1.4375 -17.859375 C -0.800781 -18.003906 -0.164062 -18.023438 0.46875 -17.921875 C 1.101562 -17.816406 1.707031 -17.609375 2.28125 -17.296875 C 2.851562 -16.992188 3.335938 -16.601562 3.734375 -16.125 C 4.347656 -15.363281 4.71875 -14.515625 4.84375 -13.578125 C 4.96875 -12.648438 4.816406 -11.785156 4.390625 -10.984375 L 10.6875 -8.765625 L 8.125 -6.671875 L 2.515625 -8.625 L 0.28125 -6.796875 L 3.5 -2.875 Z M -1.359375 -8.796875 L 1.5 -11.140625 C 1.707031 -11.304688 1.859375 -11.515625 1.953125 -11.765625 C 2.046875 -12.015625 2.09375 -12.28125 2.09375 -12.5625 C 2.09375 -12.84375 2.035156 -13.128906 1.921875 -13.421875 C 1.804688 -13.710938 1.644531 -13.988281 1.4375 -14.25 C 1.195312 -14.53125 0.9375 -14.75 0.65625 -14.90625 C 0.382812 -15.0625 0.109375 -15.160156 -0.171875 -15.203125 C -0.460938 -15.253906 -0.742188 -15.25 -1.015625 -15.1875 C -1.296875 -15.125 -1.535156 -15.015625 -1.734375 -14.859375 L -4.484375 -12.59375 Z M -1.359375 -8.796875 "/></g></g></g><g fill="#ff914d" fill-opacity="1"><g transform="translate(287.17106, 283.604706)"><g><path d="M 1.0625 -1.171875 L -10.140625 -11.390625 L -8.15625 -13.5625 L 3.046875 -3.34375 Z M 1.0625 -1.171875 "/></g></g></g><g fill="#ff914d" fill-opacity="1"><g transform="translate(297.424022, 271.735509)"><g><path d="M -3.25 -15.0625 C -3.375 -15.03125 -3.582031 -14.957031 -3.875 -14.84375 C -4.175781 -14.726562 -4.5 -14.5625 -4.84375 -14.34375 C -5.195312 -14.125 -5.539062 -13.863281 -5.875 -13.5625 C -6.207031 -13.257812 -6.503906 -12.921875 -6.765625 -12.546875 C -7.222656 -11.878906 -7.441406 -11.296875 -7.421875 -10.796875 C -7.398438 -10.304688 -7.164062 -9.90625 -6.71875 -9.59375 C -6.46875 -9.414062 -6.210938 -9.328125 -5.953125 -9.328125 C -5.703125 -9.335938 -5.429688 -9.414062 -5.140625 -9.5625 C -4.847656 -9.707031 -4.523438 -9.921875 -4.171875 -10.203125 C -3.828125 -10.492188 -3.429688 -10.832031 -2.984375 -11.21875 C -2.410156 -11.726562 -1.859375 -12.164062 -1.328125 -12.53125 C -0.796875 -12.90625 -0.273438 -13.164062 0.234375 -13.3125 C 0.753906 -13.46875 1.273438 -13.503906 1.796875 -13.421875 C 2.316406 -13.335938 2.863281 -13.097656 3.4375 -12.703125 C 4.113281 -12.242188 4.601562 -11.726562 4.90625 -11.15625 C 5.21875 -10.582031 5.367188 -9.976562 5.359375 -9.34375 C 5.359375 -8.71875 5.234375 -8.078125 4.984375 -7.421875 C 4.742188 -6.773438 4.414062 -6.148438 4 -5.546875 C 3.351562 -4.609375 2.578125 -3.773438 1.671875 -3.046875 C 0.765625 -2.328125 -0.195312 -1.78125 -1.21875 -1.40625 L -2.578125 -3.890625 C -2.398438 -3.941406 -2.128906 -4.046875 -1.765625 -4.203125 C -1.410156 -4.359375 -1.019531 -4.566406 -0.59375 -4.828125 C -0.175781 -5.085938 0.25 -5.40625 0.6875 -5.78125 C 1.132812 -6.15625 1.519531 -6.582031 1.84375 -7.0625 C 2.769531 -8.40625 2.800781 -9.375 1.9375 -9.96875 C 1.664062 -10.15625 1.378906 -10.234375 1.078125 -10.203125 C 0.785156 -10.171875 0.472656 -10.0625 0.140625 -9.875 C -0.191406 -9.695312 -0.550781 -9.445312 -0.9375 -9.125 C -1.320312 -8.8125 -1.757812 -8.453125 -2.25 -8.046875 C -2.820312 -7.566406 -3.351562 -7.171875 -3.84375 -6.859375 C -4.34375 -6.554688 -4.820312 -6.347656 -5.28125 -6.234375 C -5.75 -6.117188 -6.203125 -6.109375 -6.640625 -6.203125 C -7.085938 -6.296875 -7.554688 -6.503906 -8.046875 -6.828125 C -8.679688 -7.265625 -9.164062 -7.765625 -9.5 -8.328125 C -9.84375 -8.898438 -10.03125 -9.503906 -10.0625 -10.140625 C -10.101562 -10.785156 -10.019531 -11.445312 -9.8125 -12.125 C -9.601562 -12.800781 -9.285156 -13.453125 -8.859375 -14.078125 C -8.253906 -14.960938 -7.5625 -15.675781 -6.78125 -16.21875 C -6 -16.769531 -5.234375 -17.195312 -4.484375 -17.5 Z M -3.25 -15.0625 "/></g></g></g><g fill="#ff914d" fill-opacity="1"><g transform="translate(309.650229, 252.425424)"><g><path d="M -6 -17 L -8.046875 -12.59375 L 3.375 -7.3125 L 2.15625 -4.671875 L -9.265625 -9.953125 L -11.296875 -5.546875 L -13.625 -6.625 L -8.328125 -18.078125 Z M -6 -17 "/></g></g></g><g fill="#ff914d" fill-opacity="1"><g transform="translate(318.360617, 231.388667)"><g><path d="M 0.453125 -1.515625 L -14.0625 -5.890625 L -13.203125 -8.71875 L 1.3125 -4.34375 Z M 0.453125 -1.515625 "/></g></g></g><g fill="#ff914d" fill-opacity="1"><g transform="translate(322.525845, 216.216391)"><g><path d="M -7.515625 -1.78125 C -8.429688 -1.914062 -9.304688 -2.21875 -10.140625 -2.6875 C -10.984375 -3.15625 -11.707031 -3.753906 -12.3125 -4.484375 C -12.925781 -5.222656 -13.378906 -6.082031 -13.671875 -7.0625 C -13.972656 -8.039062 -14.039062 -9.109375 -13.875 -10.265625 C -13.664062 -11.648438 -13.1875 -12.800781 -12.4375 -13.71875 C -11.6875 -14.644531 -10.796875 -15.273438 -9.765625 -15.609375 L -8.546875 -13.15625 C -8.984375 -13.019531 -9.367188 -12.832031 -9.703125 -12.59375 C -10.035156 -12.363281 -10.3125 -12.09375 -10.53125 -11.78125 C -10.75 -11.476562 -10.921875 -11.160156 -11.046875 -10.828125 C -11.179688 -10.492188 -11.273438 -10.15625 -11.328125 -9.8125 C -11.429688 -9.082031 -11.375 -8.421875 -11.15625 -7.828125 C -10.9375 -7.242188 -10.617188 -6.738281 -10.203125 -6.3125 C -9.796875 -5.882812 -9.304688 -5.535156 -8.734375 -5.265625 C -8.160156 -4.992188 -7.578125 -4.8125 -6.984375 -4.71875 C -6.316406 -4.625 -5.660156 -4.632812 -5.015625 -4.75 C -4.378906 -4.875 -3.800781 -5.09375 -3.28125 -5.40625 C -2.757812 -5.726562 -2.3125 -6.140625 -1.9375 -6.640625 C -1.570312 -7.140625 -1.34375 -7.710938 -1.25 -8.359375 C -1.195312 -8.691406 -1.1875 -9.050781 -1.21875 -9.4375 C -1.257812 -9.820312 -1.34375 -10.191406 -1.46875 -10.546875 C -1.601562 -10.910156 -1.796875 -11.25 -2.046875 -11.5625 C -2.296875 -11.882812 -2.613281 -12.164062 -3 -12.40625 L -1.265625 -14.578125 C -0.742188 -14.253906 -0.300781 -13.835938 0.0625 -13.328125 C 0.4375 -12.828125 0.726562 -12.273438 0.9375 -11.671875 C 1.144531 -11.078125 1.28125 -10.453125 1.34375 -9.796875 C 1.40625 -9.140625 1.390625 -8.503906 1.296875 -7.890625 C 1.140625 -6.828125 0.769531 -5.882812 0.1875 -5.0625 C -0.382812 -4.238281 -1.082031 -3.5625 -1.90625 -3.03125 C -2.738281 -2.5 -3.640625 -2.117188 -4.609375 -1.890625 C -5.585938 -1.671875 -6.554688 -1.632812 -7.515625 -1.78125 Z M -7.515625 -1.78125 "/></g></g></g><g fill="#ff914d" fill-opacity="1"><g transform="translate(325.064384, 192.14265)"><g/></g></g><g fill="#ff914d" fill-opacity="1"><g transform="translate(113.754621, 228.332618)"><g><path d="M 76.203125 -27.195312 C 73.636719 -40.539062 59.523438 -46.011719 48.234375 -47.722656 C 52.339844 -49.347656 56.273438 -51.570312 59.609375 -54.222656 C 69.191406 -61.320312 73.378906 -74.234375 66.710938 -84.414062 C 62.773438 -90.3125 55.761719 -92.792969 48.835938 -92.792969 C 39.085938 -92.792969 22.066406 -88.089844 15.308594 -81.933594 C 14.195312 -80.992188 14.539062 -80.136719 14.796875 -78.855469 C 17.53125 -60.722656 18.730469 -42.078125 15.652344 -24.289062 C 15.480469 -23.261719 16.507812 -22.835938 17.875 -22.835938 C 19.925781 -22.835938 22.835938 -23.863281 23.007812 -25.316406 C 26.339844 -43.960938 24.546875 -64.570312 22.066406 -81.761719 C 28.992188 -85.609375 37.546875 -88.859375 45.585938 -88.859375 C 50.03125 -88.859375 54.308594 -87.664062 57.730469 -84.070312 C 71.242188 -69.703125 52.683594 -49.859375 38.570312 -48.234375 C 37.03125 -48.066406 34.980469 -47.636719 34.382812 -46.183594 C 33.867188 -44.902344 35.40625 -44.472656 36.433594 -44.472656 C 47.808594 -44.472656 62.089844 -40.964844 67.136719 -30.105469 C 74.148438 -14.96875 63.03125 -0.34375 49.089844 0.855469 C 48.492188 0.855469 47.894531 0.855469 47.296875 0.855469 C 34.722656 0.855469 22.066406 -4.960938 14.027344 -14.195312 C 13.683594 -14.625 13 -14.796875 12.144531 -14.796875 C 9.578125 -14.796875 5.730469 -12.914062 7.011719 -11.375 C 15.90625 -1.453125 30.277344 4.789062 44.214844 4.789062 C 51.914062 4.789062 59.523438 2.90625 65.941406 -1.367188 C 74.40625 -7.183594 78.085938 -17.277344 76.203125 -27.195312 Z M 76.203125 -27.195312 "/></g></g></g><g fill="#ff914d" fill-opacity="1"><g transform="translate(189.198378, 228.332618)"><g><path d="M 56.703125 -19.5 C 54.90625 -12.058594 50.03125 -4.363281 41.90625 -3.507812 C 39 -3.164062 35.921875 -2.992188 32.839844 -2.992188 C 27.539062 -2.992188 22.152344 -3.507812 17.019531 -4.703125 C 17.53125 -26.425781 17.703125 -48.234375 17.53125 -70.128906 C 17.445312 -77.316406 17.277344 -84.667969 16.933594 -92.023438 C 16.933594 -92.367188 16.335938 -92.539062 15.394531 -92.539062 C 13.257812 -92.539062 9.40625 -91.511719 9.492188 -89.972656 C 10.691406 -63.375 10.175781 -36.691406 9.664062 -10.175781 C 9.664062 -7.527344 9.578125 -5.730469 9.578125 -3.078125 C 9.578125 -2.394531 9.921875 -1.96875 10.261719 -1.882812 C 17.191406 -0.257812 24.289062 0.597656 31.386719 0.597656 C 40.710938 0.597656 50.800781 0.0859375 57.300781 -7.441406 C 60.722656 -11.289062 62.945312 -15.90625 64.144531 -20.78125 C 64.316406 -21.382812 63.460938 -21.550781 62.347656 -21.550781 C 60.296875 -21.550781 57.046875 -20.695312 56.703125 -19.5 Z M 56.703125 -19.5 "/></g></g></g><g clip-path="url(#340b319813)"><path fill="#ff914d" d="M 261.089844 198.816406 C 257.363281 198.816406 254.339844 201.839844 254.339844 205.566406 C 254.339844 209.296875 257.363281 212.316406 261.089844 212.316406 C 264.820312 212.316406 267.839844 209.296875 267.839844 205.566406 C 267.839844 201.839844 264.820312 198.816406 261.089844 198.816406 " fill-opacity="1" fill-rule="nonzero"/></g></svg>